<svg xmlns="http://www.w3.org/2000/svg" width="1929" height="155" viewBox="0 0 1929 155">
  <path d="M 1111 6 L 1110 148 L 1112 151 L 1150 150 L 1150 95 L 1153 93 L 1231 94 L 1240 99 L 1286 148 L 1290 150 L 1332 150 L 1332 148 L 1278 93 L 1282 90 L 1296 88 L 1307 82 L 1315 75 L 1322 63 L 1324 57 L 1324 37 L 1318 24 L 1308 14 L 1295 8 L 1275 4 L 1118 3 L 1113 4 Z M 1150 32 L 1153 30 L 1265 32 L 1277 36 L 1284 43 L 1285 53 L 1276 61 L 1255 66 L 1153 66 L 1150 63 Z M 1673 4 L 1671 10 L 1671 147 L 1674 151 L 1710 151 L 1713 147 L 1710 132 L 1710 46 L 1712 44 L 1720 52 L 1745 69 L 1759 77 L 1793 101 L 1798 103 L 1799 105 L 1860 146 L 1868 150 L 1909 150 L 1918 152 L 1925 150 L 1926 144 L 1924 140 L 1923 30 L 1924 15 L 1926 8 L 1924 3 L 1918 2 L 1908 4 L 1885 4 L 1885 115 L 1887 118 L 1886 124 L 1883 124 L 1874 115 L 1751 31 L 1721 8 L 1711 3 L 1695 4 L 1677 2 Z M 1610 3 L 1576 3 L 1573 5 L 1534 69 L 1513 108 L 1500 126 L 1492 117 L 1488 108 L 1429 8 L 1422 3 L 1392 3 L 1389 5 L 1389 7 L 1446 105 L 1472 146 L 1479 151 L 1522 150 L 1528 146 L 1532 141 L 1541 123 L 1563 88 L 1582 54 L 1606 17 L 1610 8 Z M 842 4 L 842 14 L 844 18 L 844 137 L 842 149 L 844 151 L 851 152 L 855 150 L 1047 150 L 1046 137 L 1048 121 L 1045 118 L 1038 120 L 893 119 L 884 121 L 881 118 L 883 98 L 883 4 L 880 2 L 867 4 L 845 2 Z M 575 4 L 575 16 L 577 23 L 575 149 L 577 151 L 778 151 L 780 149 L 779 134 L 781 123 L 780 120 L 777 118 L 770 120 L 615 120 L 614 25 L 616 4 L 613 2 L 600 4 L 577 2 Z M 510 3 L 475 3 L 471 7 L 433 70 L 409 114 L 399 126 L 391 116 L 382 98 L 369 78 L 330 10 L 321 3 L 291 3 L 289 4 L 289 9 L 321 61 L 353 117 L 373 148 L 378 151 L 421 150 L 431 142 L 444 117 L 507 14 L 510 7 Z M 3 4 L 3 150 L 178 150 L 193 148 L 207 144 L 220 135 L 227 126 L 232 111 L 231 92 L 224 79 L 211 69 L 216 59 L 216 35 L 209 21 L 195 10 L 184 6 L 169 3 L 63 4 L 6 2 Z M 40 94 L 43 90 L 46 89 L 84 91 L 168 90 L 180 92 L 189 96 L 193 102 L 192 109 L 187 116 L 181 120 L 168 123 L 61 121 L 44 124 L 41 119 L 42 102 Z M 40 44 L 42 33 L 45 30 L 153 32 L 162 31 L 170 34 L 177 42 L 177 52 L 171 59 L 158 63 L 88 64 L 60 62 L 45 65 L 42 62 L 40 55 Z" fill="#000000" fill-rule="evenodd"/>
</svg>
